<svg width="108" height="125" viewBox="0 0 108 125" fill="none" xmlns="http://www.w3.org/2000/svg">
<path fill-rule="evenodd" clip-rule="evenodd" d="M48.7597 17.7083C50.7064 16.3447 52.9384 15.6238 55.2139 15.6238C57.4893 15.6238 59.7213 16.3447 61.668 17.7083L66.2512 20.9531C72.6817 25.5026 80.0055 26.5156 87.363 27.5364C89.7412 27.8671 92.1217 28.1953 94.4775 28.6458C94.4775 28.6458 94.5292 33.4218 94.4752 35.5885L94.005 54.2109C93.6 70.1822 87.4642 85.3255 76.9387 96.3307C71.973 101.521 66.8362 106.211 60.9345 110.107C59.195 111.245 57.245 111.883 55.2482 111.967C53.2515 112.052 51.2663 111.581 49.4595 110.594C42.6442 106.844 36.6097 102.088 31.0995 96.3307C20.574 85.3255 14.4382 70.1822 14.0355 54.2109L13.5675 35.6484C13.5112 33.4505 13.5675 28.6458 13.5675 28.6458C15.48 28.3854 17.4285 28.1692 19.3927 27.9531C28.062 27 37.0192 26.0156 44.3677 20.8177L48.7597 17.7083ZM49.5 57.2916V39.0625H58.5V57.2916H74.25V67.7083H58.5V85.9375H49.5V67.7083H33.75V57.2916H49.5Z" fill="#008C73"/>
</svg>
