<svg width="238" height="62" viewBox="0 0 238 62" fill="none" xmlns="http://www.w3.org/2000/svg">
<path d="M65.152 42V20.1818H73.5043C75.081 20.1818 76.3913 20.4304 77.4354 20.9276C78.4865 21.4176 79.2713 22.0888 79.7898 22.9411C80.3153 23.7933 80.5781 24.7592 80.5781 25.8388C80.5781 26.7266 80.4077 27.4865 80.0668 28.1186C79.7259 28.7436 79.2678 29.2514 78.6925 29.642C78.1172 30.0327 77.4744 30.3132 76.7642 30.4837V30.6967C77.5384 30.7393 78.2805 30.9773 78.9908 31.4105C79.7081 31.8366 80.294 32.4403 80.7486 33.2216C81.2031 34.0028 81.4304 34.9474 81.4304 36.0554C81.4304 37.1847 81.157 38.2003 80.6101 39.1023C80.0632 39.9972 79.2393 40.7038 78.1385 41.2223C77.0376 41.7408 75.6527 42 73.9837 42H65.152ZM69.1044 38.6974H73.3551C74.7898 38.6974 75.8232 38.424 76.4553 37.8771C77.0945 37.3232 77.4141 36.6129 77.4141 35.7464C77.4141 35.1001 77.2543 34.5178 76.9347 33.9993C76.6151 33.4737 76.1605 33.0618 75.571 32.7635C74.9815 32.4581 74.2784 32.3054 73.4616 32.3054H69.1044V38.6974ZM69.1044 29.4609H73.0142C73.696 29.4609 74.3104 29.3366 74.8572 29.0881C75.4041 28.8324 75.8338 28.4737 76.1463 28.0121C76.4659 27.5433 76.6257 26.9893 76.6257 26.3501C76.6257 25.505 76.3274 24.8089 75.7308 24.2621C75.1413 23.7152 74.2642 23.4418 73.0994 23.4418H69.1044V29.4609ZM91.9426 42.3196C90.302 42.3196 88.8851 41.9787 87.6919 41.2969C86.5059 40.608 85.5932 39.6349 84.954 38.3778C84.3148 37.1136 83.9952 35.6257 83.9952 33.9141C83.9952 32.2308 84.3148 30.7536 84.954 29.4822C85.6003 28.2038 86.5023 27.2095 87.66 26.4993C88.8176 25.782 90.1777 25.4233 91.7402 25.4233C92.7488 25.4233 93.7005 25.5866 94.5953 25.9134C95.4973 26.233 96.2928 26.7301 96.9817 27.4048C97.6777 28.0795 98.2246 28.9389 98.6223 29.983C99.0201 31.0199 99.2189 32.2557 99.2189 33.6903V34.8729H85.8063V32.2734H95.5222C95.5151 31.5348 95.3553 30.8778 95.0428 30.3026C94.7303 29.7202 94.2935 29.2621 93.7324 28.9283C93.1784 28.5945 92.5321 28.4276 91.7935 28.4276C91.0051 28.4276 90.3127 28.6193 89.7161 29.0028C89.1195 29.3793 88.6543 29.8764 88.3205 30.4943C87.9938 31.1051 87.8269 31.7763 87.8198 32.5078V34.777C87.8198 35.7287 87.9938 36.5455 88.3418 37.2273C88.6898 37.902 89.1763 38.4205 89.8013 38.7827C90.4263 39.1378 91.1578 39.3153 91.9959 39.3153C92.557 39.3153 93.0648 39.2372 93.5194 39.081C93.9739 38.9176 94.3681 38.6797 94.7019 38.3672C95.0357 38.0547 95.2878 37.6676 95.4583 37.206L99.0591 37.6108C98.8319 38.5625 98.3986 39.3935 97.7594 40.1037C97.1273 40.8068 96.3176 41.3537 95.3304 41.7443C94.3432 42.1278 93.214 42.3196 91.9426 42.3196ZM116.629 25.6364L110.802 42H106.54L100.713 25.6364H104.825L108.586 37.7919H108.756L112.528 25.6364H116.629ZM125.986 42.3196C124.345 42.3196 122.928 41.9787 121.735 41.2969C120.549 40.608 119.636 39.6349 118.997 38.3778C118.358 37.1136 118.038 35.6257 118.038 33.9141C118.038 32.2308 118.358 30.7536 118.997 29.4822C119.643 28.2038 120.545 27.2095 121.703 26.4993C122.861 25.782 124.221 25.4233 125.783 25.4233C126.792 25.4233 127.743 25.5866 128.638 25.9134C129.54 26.233 130.336 26.7301 131.025 27.4048C131.721 28.0795 132.268 28.9389 132.665 29.983C133.063 31.0199 133.262 32.2557 133.262 33.6903V34.8729H119.849V32.2734H129.565C129.558 31.5348 129.398 30.8778 129.086 30.3026C128.773 29.7202 128.336 29.2621 127.775 28.9283C127.221 28.5945 126.575 28.4276 125.836 28.4276C125.048 28.4276 124.356 28.6193 123.759 29.0028C123.162 29.3793 122.697 29.8764 122.363 30.4943C122.037 31.1051 121.87 31.7763 121.863 32.5078V34.777C121.863 35.7287 122.037 36.5455 122.385 37.2273C122.733 37.902 123.219 38.4205 123.844 38.7827C124.469 39.1378 125.201 39.3153 126.039 39.3153C126.6 39.3153 127.108 39.2372 127.562 39.081C128.017 38.9176 128.411 38.6797 128.745 38.3672C129.079 38.0547 129.331 37.6676 129.501 37.206L133.102 37.6108C132.875 38.5625 132.442 39.3935 131.802 40.1037C131.17 40.8068 130.361 41.3537 129.373 41.7443C128.386 42.1278 127.257 42.3196 125.986 42.3196ZM144.136 42V20.1818H148.089V29.4183H158.199V20.1818H162.162V42H158.199V32.7315H148.089V42H144.136ZM173.534 42.3196C171.894 42.3196 170.477 41.9787 169.284 41.2969C168.098 40.608 167.185 39.6349 166.546 38.3778C165.907 37.1136 165.587 35.6257 165.587 33.9141C165.587 32.2308 165.907 30.7536 166.546 29.4822C167.192 28.2038 168.094 27.2095 169.252 26.4993C170.409 25.782 171.77 25.4233 173.332 25.4233C174.341 25.4233 175.292 25.5866 176.187 25.9134C177.089 26.233 177.885 26.7301 178.574 27.4048C179.27 28.0795 179.816 28.9389 180.214 29.983C180.612 31.0199 180.811 32.2557 180.811 33.6903V34.8729H167.398V32.2734H177.114C177.107 31.5348 176.947 30.8778 176.635 30.3026C176.322 29.7202 175.885 29.2621 175.324 28.9283C174.77 28.5945 174.124 28.4276 173.385 28.4276C172.597 28.4276 171.904 28.6193 171.308 29.0028C170.711 29.3793 170.246 29.8764 169.912 30.4943C169.586 31.1051 169.419 31.7763 169.412 32.5078V34.777C169.412 35.7287 169.586 36.5455 169.934 37.2273C170.282 37.902 170.768 38.4205 171.393 38.7827C172.018 39.1378 172.75 39.3153 173.588 39.3153C174.149 39.3153 174.657 39.2372 175.111 39.081C175.566 38.9176 175.96 38.6797 176.294 38.3672C176.627 38.0547 176.88 37.6676 177.05 37.206L180.651 37.6108C180.424 38.5625 179.99 39.3935 179.351 40.1037C178.719 40.8068 177.909 41.3537 176.922 41.7443C175.935 42.1278 174.806 42.3196 173.534 42.3196ZM188.782 42.3303C187.745 42.3303 186.811 42.1456 185.98 41.7763C185.156 41.3999 184.503 40.8459 184.02 40.1143C183.544 39.3828 183.306 38.4808 183.306 37.4084C183.306 36.4851 183.477 35.7216 183.818 35.1179C184.159 34.5142 184.624 34.0312 185.213 33.669C185.803 33.3068 186.467 33.0334 187.205 32.8487C187.951 32.657 188.722 32.5185 189.517 32.4332C190.476 32.3338 191.254 32.245 191.85 32.1669C192.447 32.0817 192.88 31.9538 193.15 31.7834C193.427 31.6058 193.566 31.3324 193.566 30.9631V30.8991C193.566 30.0966 193.328 29.4751 192.852 29.0348C192.376 28.5945 191.691 28.3743 190.796 28.3743C189.851 28.3743 189.102 28.5803 188.548 28.9922C188.001 29.4041 187.632 29.8906 187.44 30.4517L183.839 29.9403C184.123 28.946 184.592 28.1151 185.245 27.4474C185.899 26.7727 186.698 26.2685 187.642 25.9347C188.587 25.5938 189.631 25.4233 190.774 25.4233C191.563 25.4233 192.347 25.5156 193.129 25.7003C193.91 25.8849 194.624 26.1903 195.27 26.6165C195.916 27.0355 196.435 27.6072 196.825 28.3317C197.223 29.0561 197.422 29.9616 197.422 31.0483V42H193.715V39.7521H193.587C193.352 40.2067 193.022 40.6328 192.596 41.0305C192.177 41.4212 191.648 41.7372 191.009 41.9787C190.377 42.2131 189.634 42.3303 188.782 42.3303ZM189.784 39.4964C190.558 39.4964 191.229 39.3437 191.797 39.0384C192.365 38.7259 192.802 38.3139 193.107 37.8026C193.42 37.2912 193.576 36.7337 193.576 36.13V34.2017C193.455 34.3011 193.249 34.3935 192.958 34.4787C192.674 34.5639 192.355 34.6385 191.999 34.7024C191.644 34.7663 191.293 34.8232 190.945 34.8729C190.597 34.9226 190.295 34.9652 190.039 35.0007C189.464 35.0788 188.949 35.2067 188.494 35.3842C188.04 35.5618 187.681 35.8104 187.419 36.13C187.156 36.4425 187.024 36.8473 187.024 37.3445C187.024 38.0547 187.284 38.5909 187.802 38.9531C188.32 39.3153 188.981 39.4964 189.784 39.4964ZM205.156 20.1818V42H201.3V20.1818H205.156ZM217.293 25.6364V28.6193H207.886V25.6364H217.293ZM210.209 21.7159H214.065V37.0781C214.065 37.5966 214.143 37.9943 214.3 38.2713C214.463 38.5412 214.676 38.7259 214.939 38.8253C215.202 38.9247 215.493 38.9744 215.812 38.9744C216.054 38.9744 216.274 38.9567 216.473 38.9212C216.679 38.8857 216.835 38.8537 216.942 38.8253L217.592 41.8402C217.386 41.9112 217.091 41.9893 216.707 42.0746C216.331 42.1598 215.869 42.2095 215.322 42.2237C214.357 42.2521 213.487 42.1065 212.712 41.7869C211.938 41.4602 211.324 40.956 210.869 40.2741C210.422 39.5923 210.202 38.7401 210.209 37.7173V21.7159ZM224.727 32.4119V42H220.87V20.1818H224.642V28.4169H224.833C225.217 27.4936 225.81 26.7656 226.612 26.233C227.422 25.6932 228.452 25.4233 229.702 25.4233C230.838 25.4233 231.829 25.6612 232.674 26.1371C233.519 26.6129 234.173 27.3089 234.634 28.2251C235.103 29.1413 235.338 30.2599 235.338 31.581V42H231.481V32.1776C231.481 31.0767 231.197 30.2209 230.629 29.6101C230.068 28.9922 229.279 28.6832 228.264 28.6832C227.582 28.6832 226.971 28.8324 226.431 29.1307C225.899 29.4219 225.48 29.8445 225.174 30.3984C224.876 30.9524 224.727 31.6236 224.727 32.4119Z" fill="#008C73"/>
<path fill-rule="evenodd" clip-rule="evenodd" d="M24.8313 8.78331C25.8227 8.10695 26.9594 7.74939 28.1182 7.74939C29.277 7.74939 30.4136 8.10695 31.405 8.78331L33.7391 10.3927C37.0139 12.6493 40.7435 13.1517 44.4904 13.6581C45.7016 13.8221 46.9139 13.9848 48.1135 14.2083C48.1135 14.2083 48.1399 16.5772 48.1124 17.6519L47.8729 26.8886C47.6667 34.8104 44.542 42.3214 39.1818 47.78C36.6529 50.3543 34.037 52.6806 31.0315 54.6129C30.1456 55.1773 29.1525 55.4938 28.1357 55.5358C27.1188 55.5778 26.1079 55.3442 25.1877 54.8545C21.717 52.9945 18.6438 50.6359 15.8377 47.78C10.4775 42.3214 7.35281 34.8104 7.1477 26.8886L6.90937 17.6816C6.88072 16.5914 6.90937 14.2083 6.90937 14.2083C7.88333 14.0791 8.87562 13.9719 9.87593 13.8647C14.2908 13.392 18.8524 12.9037 22.5947 10.3256L24.8313 8.78331ZM25.2083 28.4166V19.375H29.7917V28.4166H37.8125V33.5833H29.7917V42.625H25.2083V33.5833H17.1875V28.4166H25.2083Z" fill="#008C73"/>
</svg>
